<svg width="27" height="27" viewBox="0 0 27 27" fill="none" xmlns="http://www.w3.org/2000/svg">
<circle cx="13.5" cy="13.5" r="13.5" fill="#1C4387"/>
<path d="M13.3011 10.3725L8.5002 14.7794V19.5357C8.5002 19.6588 8.54409 19.7769 8.62223 19.864C8.70036 19.9511 8.80633 20 8.91683 20L11.8348 19.9916C11.945 19.991 12.0504 19.9418 12.1281 19.8548C12.2058 19.7678 12.2494 19.65 12.2494 19.5272V16.7496C12.2494 16.6265 12.2933 16.5084 12.3714 16.4213C12.4496 16.3342 12.5555 16.2853 12.666 16.2853H14.3326C14.4431 16.2853 14.549 16.3342 14.6272 16.4213C14.7053 16.5084 14.7492 16.6265 14.7492 16.7496V19.5252C14.749 19.5863 14.7597 19.6469 14.7805 19.7034C14.8014 19.7599 14.8321 19.8112 14.8708 19.8545C14.9095 19.8978 14.9555 19.9321 15.0061 19.9555C15.0567 19.9789 15.111 19.991 15.1658 19.991L18.0828 20C18.1933 20 18.2993 19.9511 18.3774 19.864C18.4555 19.7769 18.4994 19.6588 18.4994 19.5357V14.7762L13.6995 10.3725C13.6431 10.3218 13.5728 10.2942 13.5003 10.2942C13.4279 10.2942 13.3576 10.3218 13.3011 10.3725ZM20.8847 13.3678L18.7077 11.368V7.34825C18.7077 7.25589 18.6748 7.16731 18.6162 7.102C18.5576 7.03669 18.4781 7 18.3953 7H16.937C16.8542 7 16.7747 7.03669 16.7161 7.102C16.6575 7.16731 16.6246 7.25589 16.6246 7.34825V9.45547L14.2932 7.31778C14.0695 7.1126 13.7888 7.00041 13.499 7.00041C13.2093 7.00041 12.9286 7.1126 12.7048 7.31778L6.1134 13.3678C6.08176 13.397 6.05558 13.4328 6.03636 13.4732C6.01714 13.5136 6.00526 13.5579 6.00139 13.6034C5.99752 13.649 6.00174 13.6949 6.01381 13.7386C6.02588 13.7824 6.04557 13.823 6.07174 13.8583L6.73575 14.7579C6.76185 14.7933 6.79395 14.8226 6.83022 14.8441C6.86649 14.8656 6.90621 14.879 6.94711 14.8834C6.98801 14.8878 7.02929 14.8831 7.06858 14.8697C7.10787 14.8563 7.1444 14.8344 7.17608 14.8052L13.3011 9.18268C13.3576 9.13198 13.4279 9.10434 13.5003 9.10434C13.5728 9.10434 13.6431 9.13198 13.6995 9.18268L19.8248 14.8052C19.8565 14.8344 19.8929 14.8563 19.9322 14.8698C19.9714 14.8832 20.0126 14.8879 20.0535 14.8836C20.0944 14.8793 20.1341 14.8661 20.1704 14.8446C20.2066 14.8232 20.2388 14.7941 20.2649 14.7588L20.9289 13.8591C20.9551 13.8237 20.9747 13.7828 20.9866 13.7389C20.9985 13.695 21.0026 13.6489 20.9984 13.6032C20.9943 13.5576 20.9822 13.5133 20.9626 13.4729C20.9431 13.4325 20.9166 13.3968 20.8847 13.3678Z" fill="white"/>
</svg>
