<svg width="27" height="27" viewBox="0 0 27 27" fill="none" xmlns="http://www.w3.org/2000/svg">
<circle cx="13.5" cy="13.5" r="13.5" fill="#1C4387"/>
<path fill-rule="evenodd" clip-rule="evenodd" d="M13.5 23C18.7467 23 23 18.7467 23 13.5C23 8.25329 18.7467 4 13.5 4C8.25329 4 4 8.25329 4 13.5C4 18.7467 8.25329 23 13.5 23Z" fill="white"/>
<circle cx="13.5" cy="17.5" r="2.5" fill="#1C4387"/>
<path d="M8.79467 12.161L8.12367 11.677L8.77267 10.533L7.58467 9.994L7.83767 9.202L9.11367 9.466L9.25667 8.168H10.1037L10.2467 9.477L11.5117 9.202L11.7757 9.994L10.5877 10.533L11.2367 11.677L10.5657 12.161L9.68567 11.182L8.79467 12.161Z" fill="#1C4387"/>
<path d="M16.1836 12.161L15.5126 11.677L16.1616 10.533L14.9736 9.994L15.2266 9.202L16.5026 9.466L16.6456 8.168H17.4926L17.6356 9.477L18.9006 9.202L19.1646 9.994L17.9766 10.533L18.6256 11.677L17.9546 12.161L17.0746 11.182L16.1836 12.161Z" fill="#1C4387"/>
</svg>
