<svg width="27" height="27" viewBox="0 0 27 27" fill="none" xmlns="http://www.w3.org/2000/svg">
<circle cx="13.5" cy="13.5" r="13.5" fill="#1C4387"/>
<path d="M14 6C10.1314 6 7 9.57803 7 14C7 18.4213 10.1308 22 14 22C15.3592 22 16.6911 21.5439 17.822 20.7025C18.1609 20.4504 18.2348 19.919 17.9787 19.5615L17.6915 19.1604C17.4749 18.8581 17.0937 18.784 16.8059 18.9949C15.9735 19.6051 14.9968 19.9355 14 19.9355C11.1363 19.9355 8.80645 17.2728 8.80645 14C8.80645 10.7272 11.1363 8.06452 14 8.06452C16.8265 8.06452 19.1935 9.92319 19.1935 13.2258C19.1935 14.477 18.5982 15.7981 17.5517 15.9256C17.062 15.9109 17.0744 15.5108 17.1713 14.9571L17.8327 11.0503C17.9136 10.5726 17.5934 10.129 17.1676 10.129H15.898C15.8043 10.129 15.7138 10.1685 15.6439 10.2398C15.574 10.3112 15.5295 10.4095 15.5189 10.5159L15.5186 10.5189C15.1038 9.94142 14.3769 9.81645 13.8259 9.81645C11.7208 9.81645 9.93548 11.824 9.93548 14.7023C9.93548 16.8088 10.9738 18.1174 12.6452 18.1174C13.4068 18.1174 14.2644 17.613 14.7618 16.8809C15.0306 17.981 15.9082 17.981 16.7577 17.981C19.8317 17.981 21 15.6709 21 13.2258C21 8.82752 17.8958 6 14 6ZM13.3881 15.8203C12.7601 15.8203 12.37 15.3164 12.37 14.5051C12.37 13.0537 13.2387 12.159 14.0248 12.159C14.654 12.159 15.0297 12.6507 15.0297 13.4742C15.0297 14.9278 14.0736 15.8203 13.3881 15.8203Z" fill="white"/>
</svg>
