<svg width="27" height="27" viewBox="0 0 27 27" fill="none" xmlns="http://www.w3.org/2000/svg">
<circle cx="13.5" cy="13.5" r="13.5" fill="#1C4387"/>
<path d="M18.6367 6.721L16.6055 6.01789C16.3848 5.94172 16.1583 6.11457 16.0684 6.42511L15.1309 9.70629C15.0489 9.9934 15.1036 10.3303 15.2657 10.5266L16.4493 11.9797C15.7462 14.2267 14.5177 16.0958 12.9884 17.171L12.0197 15.3956C11.8869 15.1525 11.6642 15.0704 11.4728 15.1935L9.28535 16.5997C9.07637 16.7374 8.96114 17.0772 9.01192 17.4083L9.48066 20.4551C9.52949 20.7715 9.71699 21 9.93768 21C14.9395 21 19 14.921 19 7.40654C19 7.07842 18.8496 6.79425 18.6367 6.721Z" fill="white"/>
</svg>
